<?xml version="1.0"?>
<svg width="190" height="97.85" xmlns="http://www.w3.org/2000/svg" xmlns:svg="http://www.w3.org/2000/svg" data-name="레이어_2">
 <defs>
  <style>.cls-1 {
        fill: #231815;
      }

      .cls-2 {
        fill: #ca2829;
      }

      .cls-3 {
        fill: #263b7c;
      }</style>
 </defs>
 <g class="layer">
  <title>Layer 1</title>
  <g data-name="레이어_1" id="_레이어_1-2">
   <g id="svg_1">
    <path class="cls-2" d="m93.16,54.23c-5.75,2.04 -8.78,0.11 -10.13,-1.32l-15.36,16.41c-12.98,13.75 -28.54,19.05 -40.36,14.49l61.36,-64.99s6.1,-7.4 13.11,-12.21l0,0c0.5,-0.35 0.69,-0.69 0.53,-1.34c-0.41,-1.62 -4.52,-2.69 -9.41,-2.67l0,0l-12.21,0.03s-4.49,-0.18 -7.46,0.01c-0.62,0.03 -8.45,0.36 -11.1,0.58c-2.7,0.22 -9.68,1.3 -11.63,1.77c-12.46,3.03 -24.37,8.4 -33.61,17.91c-12.17,12.52 -18.5,27.33 -17.84,41.71c0.49,10.59 4.82,19.9 12.2,26.21c6.92,5.92 15.6,9.02 24.97,9.01c2.41,0 4.86,-0.2 7.34,-0.61c12.25,-2.04 24.22,-8.94 34.64,-19.99l22.21,-23.72c-0.74,-0.89 -2.93,-2.81 -7.25,-1.28l0,0zm-79.66,9.72c-0.48,-10.35 4.36,-21.39 13.76,-30.97c11.12,-11.33 20.2,-14.7 28.76,-15.19c4.02,-0.23 7.7,0.24 11.68,2.03l-51.41,54.59c-1.65,-3.02 -2.61,-6.58 -2.79,-10.46l0,0z" id="svg_2"/>
    <path class="cls-3" d="m188.47,36.55c-1.01,-10.78 -6.34,-20.41 -14.62,-26.43c-19.78,-14.37 -42.81,-9.52 -63.2,13.3l-23.23,24.8l0,0l-1.94,2.08c0.46,0.61 2.13,2.1 6.48,0.56c5.37,-1.9 9.07,0.08 10.91,2.03l3.27,-3.51l15.12,-16.13l0.12,-0.13c15.53,-17.41 30.32,-21.22 43.97,-11.3c4.92,3.58 8.1,9.44 8.72,16.08c0.94,9.95 -3.5,21.31 -13.37,31.16c-13.81,13.78 -27.08,17.9 -40.5,13.65l19.91,-21.66l-10.64,-9.79l-29.77,32.37s-5.91,7.17 -12.78,11.98c-0.75,0.44 -1.05,0.78 -0.86,1.55c0.39,1.57 4.27,2.62 8.96,2.67l0.04,0.02l12.42,0s10.56,0.03 12.79,-0.12c0.42,-0.03 7.91,-0.62 9.39,-0.74c1.31,-0.1 7.75,-1.24 9.19,-1.6c12.63,-3.13 22.81,-8.24 32.38,-18.41c12.45,-13.22 18.57,-28.29 17.24,-42.43l0,0z" id="svg_3"/>
   </g>
  </g>
 </g>
</svg>