<?xml version="1.0" encoding="UTF-8"?>
<svg id="_레이어_2" data-name="레이어_2" xmlns="http://www.w3.org/2000/svg" viewBox="0 0 128 84.54">
  <defs>
    <style>
      .cls-1 {
        fill: #fff;
      }
    </style>
  </defs>
  <g id="_레이어_1-2" data-name="레이어_1">
    <g>
      <g>
        <path class="cls-1" d="M.51,79.06v3.26h4.31v.47H0v-7.61h4.68v.46H.51v2.97h4.02v.45H.51Z"/>
        <path class="cls-1" d="M8.26,77.41c.51,0,.89.14,1.16.42s.4.7.4,1.24v3.71h-.49v-3.69c0-.47-.1-.79-.31-.99s-.48-.29-.84-.29c-.2,0-.39.04-.57.12-.18.08-.34.18-.48.31-.15.13-.27.28-.38.45-.11.17-.19.34-.25.52v3.56h-.49v-5.29h.38l.1.99c.21-.38.48-.65.8-.82s.64-.26.97-.26Z"/>
        <path class="cls-1" d="M12.89,84.13c.32,0,.59-.03.8-.09.22-.06.39-.15.52-.28.13-.12.22-.28.28-.47.06-.19.08-.42.08-.68v-.51c-.14.23-.33.41-.58.56-.25.15-.55.22-.92.22s-.66-.05-.91-.15c-.25-.1-.46-.26-.62-.47-.16-.22-.28-.5-.35-.85-.07-.35-.11-.77-.11-1.28s.04-.92.11-1.26c.07-.35.19-.63.35-.84.16-.21.36-.37.62-.47.25-.1.55-.15.91-.15.37,0,.69.07.94.22.26.15.45.33.58.57l.06-.7h.38v4.91c0,.27-.02.54-.06.8-.04.26-.14.48-.28.68-.15.2-.37.35-.66.47-.29.12-.68.18-1.18.18-.23,0-.48-.03-.74-.1s-.49-.15-.68-.25l.15-.39c.18.1.38.17.6.23.22.06.46.09.7.09ZM14.56,79.22c0-.17-.03-.34-.09-.51-.06-.17-.15-.31-.27-.44-.12-.13-.28-.23-.46-.31-.19-.08-.4-.12-.65-.12-.32,0-.58.05-.77.14-.19.1-.35.24-.45.43-.11.19-.18.43-.22.72-.04.29-.06.63-.06,1.02s.02.74.06,1.02c.04.29.11.53.22.72.11.19.26.33.45.42.19.09.45.14.77.14.25,0,.46-.04.65-.12.19-.08.34-.18.46-.31.12-.13.22-.28.27-.45.06-.17.09-.34.09-.51v-1.85Z"/>
        <path class="cls-1" d="M17.05,76.54h-.48v-.89h.48v.89ZM16.58,77.5h.48v5.29h-.48v-5.29Z"/>
        <path class="cls-1" d="M20.85,77.41c.51,0,.89.14,1.16.42s.4.7.4,1.24v3.71h-.49v-3.69c0-.47-.1-.79-.31-.99s-.48-.29-.84-.29c-.2,0-.39.04-.57.12-.18.08-.34.18-.48.31-.15.13-.27.28-.38.45-.11.17-.19.34-.25.52v3.56h-.49v-5.29h.38l.1.99c.21-.38.48-.65.8-.82s.64-.26.97-.26Z"/>
        <path class="cls-1" d="M27.65,80.31h-3.47c0,.36.03.68.08.95.05.27.13.49.24.67.12.18.27.31.46.4s.43.13.71.13c.44,0,.78-.1,1.01-.3.23-.2.38-.54.45-1h.48c-.09.63-.3,1.07-.64,1.33-.34.26-.78.39-1.31.39-.34,0-.64-.05-.89-.14s-.46-.25-.62-.46c-.16-.21-.28-.5-.36-.85-.08-.35-.12-.78-.12-1.3s.04-.93.12-1.28.2-.63.36-.84c.16-.21.37-.37.62-.46.25-.09.55-.14.89-.14.32,0,.61.04.86.13.25.09.46.24.62.45.17.21.29.48.38.82.08.34.12.76.12,1.27v.22ZM27.15,79.89c-.01-.35-.04-.65-.1-.91s-.14-.47-.25-.64c-.12-.17-.27-.3-.46-.38-.19-.08-.42-.13-.69-.13s-.51.04-.69.13c-.18.08-.33.21-.45.38-.12.17-.2.39-.25.64s-.08.56-.09.91h2.98Z"/>
        <path class="cls-1" d="M32.71,80.31h-3.47c0,.36.03.68.08.95.05.27.13.49.24.67.12.18.27.31.46.4s.43.13.71.13c.44,0,.78-.1,1.01-.3.23-.2.38-.54.45-1h.48c-.09.63-.3,1.07-.64,1.33-.34.26-.78.39-1.31.39-.34,0-.64-.05-.89-.14s-.46-.25-.62-.46c-.16-.21-.28-.5-.36-.85-.08-.35-.12-.78-.12-1.3s.04-.93.12-1.28.2-.63.36-.84c.16-.21.37-.37.62-.46.25-.09.55-.14.89-.14.32,0,.61.04.86.13.25.09.46.24.62.45.17.21.29.48.38.82.08.34.12.76.12,1.27v.22ZM32.21,79.89c-.01-.35-.04-.65-.1-.91s-.14-.47-.25-.64c-.12-.17-.27-.3-.46-.38-.19-.08-.42-.13-.69-.13s-.51.04-.69.13c-.18.08-.33.21-.45.38-.12.17-.2.39-.25.64s-.08.56-.09.91h2.98Z"/>
        <path class="cls-1" d="M35.92,77.4c.18,0,.33.02.46.06.13.04.22.08.29.12l-.14.38c-.05-.03-.13-.06-.24-.1-.11-.04-.25-.05-.43-.04-.17,0-.33.04-.48.1-.15.06-.28.15-.39.25s-.21.22-.29.35-.14.27-.18.41v3.86h-.49v-5.29h.38l.07.73c.09-.16.19-.3.31-.4.12-.11.24-.19.38-.25.13-.06.27-.11.4-.13.13-.03.26-.04.37-.04Z"/>
        <path class="cls-1" d="M38.28,76.54h-.48v-.89h.48v.89ZM37.8,77.5h.48v5.29h-.48v-5.29Z"/>
        <path class="cls-1" d="M42.07,77.41c.51,0,.89.14,1.16.42s.4.7.4,1.24v3.71h-.49v-3.69c0-.47-.1-.79-.31-.99s-.48-.29-.84-.29c-.2,0-.39.04-.57.12-.18.08-.34.18-.48.31-.15.13-.27.28-.38.45-.11.17-.19.34-.25.52v3.56h-.49v-5.29h.38l.1.99c.21-.38.48-.65.8-.82s.64-.26.97-.26Z"/>
        <path class="cls-1" d="M46.71,84.13c.32,0,.59-.03.8-.09.22-.06.39-.15.52-.28.13-.12.22-.28.28-.47.06-.19.08-.42.08-.68v-.51c-.14.23-.33.41-.58.56-.25.15-.55.22-.92.22s-.66-.05-.91-.15c-.25-.1-.46-.26-.62-.47-.16-.22-.28-.5-.35-.85-.07-.35-.11-.77-.11-1.28s.04-.92.11-1.26c.07-.35.19-.63.35-.84.16-.21.36-.37.62-.47.25-.1.55-.15.91-.15.37,0,.69.07.94.22.26.15.45.33.58.57l.06-.7h.38v4.91c0,.27-.02.54-.06.8-.04.26-.14.48-.28.68-.15.2-.37.35-.66.47-.29.12-.68.18-1.18.18-.23,0-.48-.03-.74-.1s-.49-.15-.68-.25l.15-.39c.18.1.38.17.6.23.22.06.46.09.7.09ZM48.38,79.22c0-.17-.03-.34-.09-.51-.06-.17-.15-.31-.27-.44-.12-.13-.28-.23-.46-.31-.19-.08-.4-.12-.65-.12-.32,0-.58.05-.77.14-.19.1-.35.24-.45.43-.11.19-.18.43-.22.72-.04.29-.06.63-.06,1.02s.02.74.06,1.02c.04.29.11.53.22.72.11.19.26.33.45.42.19.09.45.14.77.14.25,0,.46-.04.65-.12.19-.08.34-.18.46-.31.12-.13.22-.28.27-.45.06-.17.09-.34.09-.51v-1.85Z"/>
        <path class="cls-1" d="M53.18,78.98c0-.69.05-1.28.14-1.78.09-.49.25-.89.46-1.21.21-.31.49-.54.83-.69.34-.15.76-.22,1.26-.22.43,0,.79.07,1.09.2s.54.31.73.53.33.48.43.77c.1.29.16.59.2.9h-.51c-.05-.63-.24-1.12-.56-1.45-.32-.33-.78-.5-1.39-.5-.39,0-.72.06-1,.17-.27.11-.5.3-.67.56-.17.26-.3.61-.37,1.06s-.12.99-.12,1.66.04,1.2.12,1.64c.08.44.21.79.38,1.06.17.27.4.45.67.57.28.11.61.17,1,.17.63,0,1.11-.18,1.46-.53.35-.36.52-.89.52-1.61v-1.16h-1.99v-.46h2.48v1.44c0,.49-.06.91-.18,1.26-.12.35-.29.64-.5.86s-.47.39-.78.5c-.3.11-.63.16-1,.16-.51,0-.93-.07-1.28-.22-.35-.15-.62-.38-.83-.69-.21-.31-.36-.72-.45-1.21-.09-.49-.14-1.08-.14-1.77Z"/>
        <path class="cls-1" d="M61.78,77.4c.18,0,.33.02.46.06.13.04.22.08.29.12l-.14.38c-.05-.03-.13-.06-.24-.1-.11-.04-.25-.05-.43-.04-.17,0-.33.04-.48.1-.15.06-.28.15-.39.25s-.21.22-.29.35-.14.27-.18.41v3.86h-.49v-5.29h.38l.07.73c.09-.16.19-.3.31-.4.12-.11.24-.19.38-.25.13-.06.27-.11.4-.13.13-.03.26-.04.37-.04Z"/>
        <path class="cls-1" d="M65.36,77.41c.37,0,.68.07.93.22.25.15.45.33.58.56l.07-.69h.38v5.29h-.38l-.07-.69c-.14.23-.33.41-.58.56-.25.15-.56.22-.93.22s-.66-.05-.91-.15c-.25-.1-.46-.26-.62-.47-.16-.22-.28-.5-.35-.85-.07-.35-.11-.77-.11-1.28s.04-.92.11-1.26c.07-.35.19-.63.35-.84.16-.21.36-.37.62-.47.25-.1.55-.15.91-.15ZM66.85,79.22c0-.17-.03-.34-.09-.51-.06-.17-.15-.32-.27-.45-.12-.13-.28-.24-.46-.32-.19-.08-.4-.12-.65-.12-.32,0-.58.05-.77.14-.19.1-.35.24-.45.43-.11.19-.18.44-.22.73-.04.29-.06.63-.06,1.02s.02.74.06,1.02c.04.29.11.53.22.72.11.19.26.33.45.43.19.09.45.14.77.14.25,0,.46-.04.65-.12.19-.08.34-.19.46-.32.12-.13.22-.28.27-.45.06-.17.09-.34.09-.51v-1.85Z"/>
        <path class="cls-1" d="M70.65,77.41c.35,0,.66.05.91.15s.46.26.62.47c.16.22.28.5.35.85s.11.77.11,1.27-.04.92-.11,1.26c-.07.35-.19.63-.35.84-.16.21-.36.37-.62.47s-.55.15-.91.15-.66-.07-.91-.21c-.25-.14-.44-.31-.58-.52v2.4h-.48v-7.04h.38l.07.69c.14-.23.33-.41.58-.56.25-.15.56-.22.93-.22ZM69.16,81.07c0,.17.03.34.09.51.06.17.15.32.27.45.12.13.28.24.46.32.19.08.4.12.65.12.32,0,.58-.05.77-.14.19-.1.35-.24.45-.43.11-.19.18-.44.22-.73.04-.29.06-.63.06-1.02s-.02-.73-.06-1.02c-.04-.29-.11-.53-.22-.72-.11-.19-.26-.33-.45-.43-.2-.09-.45-.14-.77-.14-.25,0-.46.04-.65.12-.19.08-.34.19-.46.32-.12.13-.22.28-.27.45-.06.17-.09.34-.09.51v1.85Z"/>
        <path class="cls-1" d="M77.4,79.1c0-.46-.12-.79-.35-.98s-.54-.3-.92-.3c-.21,0-.4.04-.58.12s-.35.18-.5.31c-.15.13-.28.28-.39.45-.11.17-.2.35-.26.53v3.56h-.49v-7.4h.49v3.09c.21-.38.48-.65.8-.81.32-.17.64-.25.96-.25.58,0,1.02.14,1.3.42.28.28.42.7.42,1.24v3.71h-.49v-3.69Z"/>
        <path class="cls-1" d="M79.87,76.54h-.48v-.89h.48v.89ZM79.39,77.5h.48v5.29h-.48v-5.29Z"/>
        <path class="cls-1" d="M83.27,82.88c-.34,0-.64-.05-.89-.14s-.46-.25-.62-.46c-.16-.21-.28-.5-.36-.85-.08-.35-.12-.78-.12-1.3s.04-.93.12-1.28.2-.63.36-.84c.16-.21.37-.37.62-.46.25-.09.55-.14.89-.14.53,0,.96.13,1.3.39.33.26.55.71.65,1.33h-.48c-.08-.47-.23-.81-.46-1.01-.23-.2-.57-.3-1.02-.3-.29,0-.53.05-.72.14-.19.1-.34.24-.46.43-.11.19-.19.43-.24.72-.04.29-.07.63-.07,1.02s.02.74.07,1.02c.04.29.12.53.24.72.12.19.27.33.46.42.19.09.44.14.73.14.45,0,.79-.1,1.01-.3.23-.2.38-.54.46-1.01h.48c-.1.63-.32,1.07-.65,1.33-.33.26-.77.39-1.31.39Z"/>
        <path class="cls-1" d="M90.31,80.31h-3.47c0,.36.03.68.08.95.05.27.13.49.24.67.12.18.27.31.46.4s.43.13.71.13c.44,0,.78-.1,1.01-.3.23-.2.38-.54.45-1h.48c-.09.63-.3,1.07-.64,1.33-.34.26-.78.39-1.31.39-.34,0-.64-.05-.89-.14s-.46-.25-.62-.46c-.16-.21-.28-.5-.36-.85-.08-.35-.12-.78-.12-1.3s.04-.93.12-1.28.2-.63.36-.84c.16-.21.37-.37.62-.46.25-.09.55-.14.89-.14.32,0,.61.04.86.13.25.09.46.24.62.45.17.21.29.48.38.82.08.34.12.76.12,1.27v.22ZM89.82,79.89c-.01-.35-.04-.65-.1-.91s-.14-.47-.25-.64c-.12-.17-.27-.3-.46-.38-.19-.08-.42-.13-.69-.13s-.51.04-.69.13c-.18.08-.33.21-.45.38-.12.17-.2.39-.25.64s-.08.56-.09.91h2.98Z"/>
        <path class="cls-1" d="M93.53,77.4c.18,0,.33.02.46.06.13.04.22.08.29.12l-.14.38c-.05-.03-.13-.06-.24-.1-.11-.04-.25-.05-.43-.04-.17,0-.33.04-.48.1-.15.06-.28.15-.39.25s-.21.22-.29.35-.14.27-.18.41v3.86h-.49v-5.29h.38l.07.73c.09-.16.19-.3.31-.4.12-.11.24-.19.38-.25.13-.06.27-.11.4-.13.13-.03.26-.04.37-.04Z"/>
        <path class="cls-1" d="M100.06,75.63c-.33,0-.54.07-.64.21-.1.14-.15.37-.15.67v.98h1.32v.43h-1.32v4.86h-.49v-4.86h-.99v-.43h.99v-.98c0-.38.09-.69.26-.93.17-.24.45-.35.83-.35h.68v.39h-.49Z"/>
        <path class="cls-1" d="M105.65,81.01c0,.33-.05.61-.14.84s-.23.42-.4.58c-.17.15-.38.26-.62.34s-.5.11-.78.11-.55-.04-.79-.11-.45-.18-.62-.34c-.17-.15-.31-.34-.4-.58s-.15-.51-.15-.84v-1.75c0-.33.05-.61.15-.84s.23-.42.4-.58c.17-.15.38-.26.62-.34.24-.07.51-.11.79-.11s.55.04.78.11c.24.07.45.18.62.34.17.15.31.34.4.58s.14.51.14.84v1.75ZM102.22,81.01c0,.47.11.82.34,1.07.23.25.61.38,1.14.38s.91-.12,1.13-.38c.22-.25.34-.61.34-1.07v-1.75c0-.46-.11-.82-.34-1.07-.22-.25-.6-.38-1.13-.38s-.91.13-1.14.38-.34.61-.34,1.07v1.75Z"/>
        <path class="cls-1" d="M108.99,77.4c.18,0,.33.02.46.06.13.04.22.08.29.12l-.14.38c-.05-.03-.13-.06-.24-.1-.11-.04-.25-.05-.43-.04-.17,0-.33.04-.48.1-.15.06-.28.15-.39.25s-.21.22-.29.35-.14.27-.18.41v3.86h-.49v-5.29h.38l.07.73c.09-.16.19-.3.31-.4.12-.11.24-.19.38-.25.13-.06.27-.11.4-.13.13-.03.26-.04.37-.04Z"/>
        <path class="cls-1" d="M118.02,77.05c0,.14-.02.3-.05.47-.03.17-.09.33-.18.49-.09.16-.2.31-.35.45-.15.14-.33.26-.56.34.28.05.51.14.7.26s.34.27.46.43.2.35.25.54.08.39.08.58c0,.72-.19,1.26-.56,1.63-.38.36-.92.55-1.64.55h-2.46v-7.61h2.08c.71,0,1.26.15,1.65.46.38.31.58.78.58,1.4ZM115.82,78.62c.25,0,.47-.03.68-.09.2-.06.38-.16.53-.28.15-.13.27-.29.35-.48.08-.2.12-.43.12-.7s-.04-.48-.12-.66c-.08-.18-.2-.33-.34-.45-.14-.12-.31-.2-.51-.26s-.4-.08-.62-.08h-1.68v3h1.59ZM116.17,82.34c.25,0,.48-.03.68-.1.21-.07.38-.17.53-.31.15-.14.26-.32.35-.54.08-.22.12-.48.12-.78,0-.27-.05-.5-.14-.69-.09-.19-.22-.35-.38-.47-.16-.12-.35-.21-.57-.27-.22-.06-.46-.09-.72-.09h-1.83v3.27h1.95Z"/>
        <path class="cls-1" d="M120.29,82.79h-.51v-7.61h.51v7.61Z"/>
        <path class="cls-1" d="M122.56,75.18l2.41,7.1,2.43-7.1h.6v7.61h-.48v-6.59l-2.25,6.59h-.6l-2.23-6.59v6.59h-.48v-7.61h.6Z"/>
      </g>
      <g>
        <path class="cls-1" d="M90.64,28.83c.68-.74,1.36-1.18,2.03-1.31.67-.13,1.33.09,1.98.69.28.26.48.55.61.88.13.33.16.7.09,1.12.47-.2.92-.26,1.37-.18.45.08.84.28,1.18.59.74.68,1.1,1.37,1.08,2.07-.02.71-.37,1.44-1.07,2.2l-2.24,2.44-6.96-6.39,1.93-2.11ZM93.6,31.38c.14-.15.25-.31.34-.47s.13-.33.14-.49c0-.17-.03-.33-.1-.5s-.21-.34-.4-.51c-.32-.29-.63-.4-.94-.34-.31.06-.6.23-.85.5l-1.02,1.11,1.89,1.74.94-1.03ZM96.98,33.9c.29-.32.44-.65.45-1s-.17-.7-.55-1.05c-.36-.33-.72-.46-1.09-.4-.37.06-.71.26-1.02.6l-1.14,1.25,2.13,1.95,1.23-1.34Z"/>
        <path class="cls-1" d="M101.95,30.49l-1.09,1.19-6.96-6.39,1.09-1.19,6.96,6.39Z"/>
        <path class="cls-1" d="M107.57,24.36l-4.26-3.91,2.99,5.29-.97,1.06-5.53-2.54,4.27,3.92-1.02,1.11-6.96-6.39,1.09-1.18,7.36,3.37-3.99-7.05,1.09-1.18,6.96,6.39-1.02,1.11Z"/>
      </g>
      <g>
        <path class="cls-1" d="M63.03,34.6c-3.81,1.35-5.82.07-6.71-.87l-10.18,10.87c-8.6,9.11-18.91,12.62-26.74,9.6L60.05,11.15s4.04-4.91,8.69-8.09h0c.33-.24.46-.46.35-.89-.27-1.07-2.99-1.78-6.23-1.77h0s-8.09.02-8.09.02c0,0-2.97-.12-4.94,0-.41.03-5.6.24-7.35.38-1.79.15-6.41.86-7.71,1.18-8.25,2-16.14,5.56-22.27,11.86C4.44,22.14.24,31.96.68,41.48c.32,7.01,3.19,13.18,8.08,17.36,4.58,3.92,10.33,5.97,16.55,5.97,1.59,0,3.22-.13,4.86-.41,8.12-1.35,16.05-5.92,22.95-13.24l14.72-15.71c-.49-.59-1.95-1.86-4.81-.85ZM10.25,41.04c-.32-6.85,2.89-14.17,9.12-20.51,7.37-7.51,13.39-9.74,19.05-10.06,2.67-.15,5.1.16,7.74,1.35L12.1,47.97c-1.09-2-1.73-4.36-1.85-6.93Z"/>
        <path class="cls-1" d="M126.18,22.89c-.67-7.14-4.2-13.52-9.69-17.51-13.1-9.52-28.36-6.31-41.87,8.81l-15.39,16.42s0,0,0,0l-1.29,1.38c.31.4,1.42,1.39,4.3.37,3.56-1.26,6.01.05,7.22,1.34l2.17-2.32,10.02-10.69.08-.09c10.28-11.53,20.09-14.05,29.13-7.48,3.26,2.37,5.37,6.25,5.78,10.65.62,6.59-2.32,14.12-8.86,20.64-9.15,9.13-17.94,11.86-26.84,9.04l13.2-14.35-7.05-6.49-19.72,21.44s-3.92,4.75-8.47,7.94c-.5.29-.7.52-.57,1.03.26,1.04,2.83,1.73,5.94,1.77h.03s8.23,0,8.23,0c0,0,6.99.03,8.47-.08.28-.02,5.24-.41,6.22-.48.87-.07,5.13-.82,6.09-1.06,8.37-2.07,15.11-5.46,21.45-12.2,8.24-8.76,12.3-18.74,11.42-28.1Z"/>
      </g>
    </g>
  </g>
</svg>