<svg width="194" height="53" viewBox="0 0 194 53" fill="none" xmlns="http://www.w3.org/2000/svg">
<mask id="mask0_1295_4135" style="mask-type:luminance" maskUnits="userSpaceOnUse" x="0" y="0" width="185" height="53">
<path d="M184.238 0H0V53H184.238V0Z" fill="white"/>
</mask>
<g mask="url(#mask0_1295_4135)">
<mask id="mask1_1295_4135" style="mask-type:luminance" maskUnits="userSpaceOnUse" x="0" y="0" width="186" height="53">
<path d="M185.906 0H0V53H185.906V0Z" fill="white"/>
</mask>
<g mask="url(#mask1_1295_4135)">
<mask id="mask2_1295_4135" style="mask-type:luminance" maskUnits="userSpaceOnUse" x="0" y="0" width="186" height="53">
<path d="M185.906 0H0V53H185.906V0Z" fill="white"/>
</mask>
<g mask="url(#mask2_1295_4135)">
<path fill-rule="evenodd" clip-rule="evenodd" d="M103.782 49.0932H0.845215V3.43945C0.845215 1.7826 2.14573 0.439453 3.75 0.439453H112.516L135.897 0.439491C144.935 0.439491 151.865 12.1816 159.181 24.5751C166.58 37.1121 174.373 46.7038 185.14 49.0932H112.516H103.782Z" fill="url(#paint0_linear_1295_4135)"/>
<mask id="mask3_1295_4135" style="mask-type:luminance" maskUnits="userSpaceOnUse" x="0" y="0" width="186" height="50">
<path fill-rule="evenodd" clip-rule="evenodd" d="M103.782 49.2268H0.845215V3.26562C0.845215 1.60877 2.14573 0.265625 3.75 0.265625H112.516L135.897 0.265663C144.935 0.265663 151.865 8.70337 159.181 21.0969C166.58 33.6339 174.373 46.8374 185.14 49.2268H112.516H103.782Z" fill="white"/>
</mask>
<g mask="url(#mask3_1295_4135)">
<path d="M0.845212 49.2269V51.2269H-1.09131V49.2269H0.845212ZM185.14 49.2269L185.546 47.2715L185.14 51.2269V49.2269ZM0.845212 47.2269H103.782V51.2269H0.845212V47.2269ZM2.78173 3.27431V49.2269H-1.09131V4.39648L2.78173 3.27431ZM3.75 2.27431C3.21524 2.27431 2.78173 2.72203 2.78173 3.27431L-1.09131 4.39648C-1.09131 1.63506 1.07622 -0.603516 3.75 -0.603516V2.27431ZM112.516 2.27431H3.75V-0.603516H112.516V2.27431ZM112.516 -0.603516L135.897 -0.603476V2.27435L112.516 2.27431V-0.603516ZM135.897 -0.603476C141.281 -0.603476 146.949 1.63939 150.831 6.24858C154.737 10.8871 157.043 13.9896 160.674 20.1426L157.368 22.2246C153.684 15.9841 151.106 12.8123 147.459 8.48136C143.787 4.12109 139.552 2.27435 135.897 2.27435V-0.603476ZM160.674 20.1426C164.393 26.4431 168.113 32.7376 172.219 37.7646C176.334 42.8037 180.786 46.2148 185.546 47.2715L184.734 51.1822C178.728 49.8495 173.643 45.5327 169.32 40.2385C164.988 34.9322 161.049 28.4612 157.368 22.2246L160.674 20.1426ZM185.14 51.2269H112.516V47.2269H185.14V51.2269ZM112.516 51.2269H103.782V47.2269H112.516V51.2269Z" fill="url(#paint1_linear_1295_4135)"/>
</g>
<path d="M2.77216 37.9297L166.714 38.2571C166.714 38.2571 170.263 42.1597 175.025 46.2479C177.603 48.0317 177.726 48.4035 180.432 49.6006C183.457 50.9209 186.422 52.0879 186.422 52.0879L2.75928 52.9722L2.77216 37.9297Z" fill="url(#paint2_linear_1295_4135)"/>
<path d="M184.444 48.45L179.374 48.4316L186.47 51.4896L186.896 51.5079L191.022 49.1478L184.444 48.45Z" fill="#98855D"/>
<path d="M2.76477 48.875H0.847168V52.9809H2.76477V48.875Z" fill="#B6A170"/>
</g>
<path d="M176.339 47.1699C180.628 49.4889 184.358 49.7674 185.909 49.774L186.378 49.7674C186.256 49.7715 186.1 49.7748 185.909 49.774L177.775 49.8883L176.339 47.1699Z" fill="#423726"/>
</g>
</g>
<rect x="180" y="49.752" width="4.5" height="2.34766" fill="#413726"/>
<path d="M184.5 49.9636C179.725 49.5449 177.315 47.9698 176.278 47.1172L176.785 44.9785C178.924 46.9188 182.687 47.8856 184.5 47.9726V49.9636Z" fill="#A39064"/>
<defs>
<linearGradient id="paint0_linear_1295_4135" x1="0.845215" y1="26.5722" x2="245.542" y2="26.5722" gradientUnits="userSpaceOnUse">
<stop stop-color="#322B1C"/>
<stop offset="0.472245" stop-color="#594D32"/>
<stop offset="0.837245" stop-color="#3B3123"/>
<stop offset="1" stop-color="#272319"/>
</linearGradient>
<linearGradient id="paint1_linear_1295_4135" x1="77.72" y1="-10.9848" x2="82.4453" y2="106.665" gradientUnits="userSpaceOnUse">
<stop stop-color="#63512E"/>
<stop offset="0.0884568" stop-color="#423625"/>
<stop offset="0.41132" stop-color="#D6BD84"/>
<stop offset="0.837918" stop-color="#0E0B06"/>
<stop offset="0.926574" stop-color="#413723"/>
<stop offset="1" stop-color="#1D1910"/>
</linearGradient>
<linearGradient id="paint2_linear_1295_4135" x1="2.97676" y1="44.2163" x2="235.718" y2="44.2163" gradientUnits="userSpaceOnUse">
<stop stop-color="#322B1C"/>
<stop offset="0.472245" stop-color="#594D32"/>
<stop offset="0.837245" stop-color="#3B3123"/>
<stop offset="1" stop-color="#272319"/>
</linearGradient>
</defs>
</svg>
