<svg width="192" height="53" viewBox="0 0 192 53" fill="none" xmlns="http://www.w3.org/2000/svg">
<g clip-path="url(#clip0_243_923)">
<mask id="mask0_243_923" style="mask-type:luminance" maskUnits="userSpaceOnUse" x="0" y="0" width="192" height="53">
<path d="M192 0H0V53H192V0Z" fill="white"/>
</mask>
<g mask="url(#mask0_243_923)">
<path fill-rule="evenodd" clip-rule="evenodd" d="M107.184 49.0942H0.873047V3.44043C0.873047 1.78358 2.21619 0.44043 3.87305 0.44043H116.205L140.352 0.440468C149.687 0.440468 156.844 12.1826 164.399 24.5761C172.041 37.1131 180.089 46.7048 191.209 49.0942H116.205H107.184Z" fill="url(#paint0_linear_243_923)"/>
<mask id="mask1_243_923" style="mask-type:luminance" maskUnits="userSpaceOnUse" x="0" y="0" width="192" height="50">
<path fill-rule="evenodd" clip-rule="evenodd" d="M107.184 49.2278H0.873047V3.2666C0.873047 1.60975 2.21619 0.266602 3.87305 0.266602H116.205L140.352 0.26664C149.687 0.26664 156.844 8.70435 164.399 21.0979C172.041 33.6349 180.089 46.8384 191.209 49.2278H116.205H107.184Z" fill="white"/>
</mask>
<g mask="url(#mask1_243_923)">
<path d="M0.873049 49.2279V51.2279H-1.12695V49.2279H0.873049ZM191.209 49.2279L191.629 47.2725L191.209 51.2279V49.2279ZM0.873049 47.2279H107.184V51.2279H0.873049V47.2279ZM2.87305 3.27529V49.2279H-1.12695V4.39746L2.87305 3.27529ZM3.87306 2.27529C3.32077 2.27529 2.87305 2.72301 2.87305 3.27529L-1.12695 4.39746C-1.12695 1.63604 1.11163 -0.602539 3.87306 -0.602539V2.27529ZM116.205 2.27529H3.87306V-0.602539H116.205V2.27529ZM116.205 -0.602539L140.352 -0.602499V2.27533L116.205 2.27529V-0.602539ZM140.352 -0.602499C145.912 -0.602499 151.766 1.64037 155.775 6.24956C159.81 10.8881 162.191 13.9906 165.942 20.1436L162.526 22.2256C158.722 15.9851 156.06 12.8133 152.293 8.48234C148.501 4.12207 144.126 2.27533 140.352 2.27533V-0.602499ZM165.942 20.1436C169.782 26.4441 173.624 32.7386 177.864 37.7656C182.114 42.8047 186.712 46.2158 191.629 47.2725L190.789 51.1832C184.587 49.8505 179.336 45.5337 174.871 40.2395C170.396 34.9332 166.328 28.4622 162.526 22.2256L165.942 20.1436ZM191.209 51.2279H116.205V47.2279H191.209V51.2279ZM116.205 51.2279H107.184V47.2279H116.205V51.2279Z" fill="url(#paint1_linear_243_923)"/>
</g>
<path d="M2.86291 37.9312L172.179 38.2586C172.179 38.2586 175.844 42.1612 180.763 46.2494C183.425 48.0332 183.552 48.405 186.346 49.6021C189.471 50.9224 192.533 52.0894 192.533 52.0894L2.84961 52.9737L2.86291 37.9312Z" fill="url(#paint2_linear_243_923)"/>
<path d="M190.49 49.1746L185.254 49.1562L192.582 52.2142L193.023 52.2325L197.284 49.8724L190.49 49.1746Z" fill="#98855D"/>
<path d="M2.85547 48.8765H0.875V52.9824H2.85547V48.8765Z" fill="#B6A170"/>
</g>
<path d="M184.799 48.8894C189.228 51.2084 193.081 51.4869 194.682 51.4935L195.167 51.4869C195.041 51.491 194.879 51.4943 194.682 51.4935L186.282 51.6078L184.799 48.8894Z" fill="#423726"/>
</g>
<defs>
<linearGradient id="paint0_linear_243_923" x1="0.873047" y1="26.5732" x2="253.591" y2="26.5732" gradientUnits="userSpaceOnUse">
<stop stop-color="#322B1C"/>
<stop offset="0.472245" stop-color="#594D32"/>
<stop offset="0.837245" stop-color="#3B3123"/>
<stop offset="1" stop-color="#272319"/>
</linearGradient>
<linearGradient id="paint1_linear_243_923" x1="80.2679" y1="-10.9838" x2="84.8436" y2="106.678" gradientUnits="userSpaceOnUse">
<stop stop-color="#63512E"/>
<stop offset="0.0884568" stop-color="#423625"/>
<stop offset="0.41132" stop-color="#D6BD84"/>
<stop offset="0.837918" stop-color="#0E0B06"/>
<stop offset="0.926574" stop-color="#413723"/>
<stop offset="1" stop-color="#1D1910"/>
</linearGradient>
<linearGradient id="paint2_linear_243_923" x1="3.07422" y1="44.2178" x2="243.445" y2="44.2178" gradientUnits="userSpaceOnUse">
<stop stop-color="#322B1C"/>
<stop offset="0.472245" stop-color="#594D32"/>
<stop offset="0.837245" stop-color="#3B3123"/>
<stop offset="1" stop-color="#272319"/>
</linearGradient>
<clipPath id="clip0_243_923">
<rect width="192" height="53" fill="white"/>
</clipPath>
</defs>
</svg>
