<svg width="192" height="53" viewBox="0 0 192 53" fill="none" xmlns="http://www.w3.org/2000/svg">
<mask id="path-1-inside-1_234_792" fill="white">
<path fill-rule="evenodd" clip-rule="evenodd" d="M107.184 52.7061H0.872925V3.44043C0.872925 1.78358 2.21607 0.44043 3.87293 0.44043H116.205L140.352 0.440468C149.687 0.440468 156.844 12.1826 164.399 24.5761C172.041 37.1131 180.089 50.3167 191.209 52.7061H116.205H107.184Z"/>
</mask>
<path fill-rule="evenodd" clip-rule="evenodd" d="M107.184 52.7061H0.872925V3.44043C0.872925 1.78358 2.21607 0.44043 3.87293 0.44043H116.205L140.352 0.440468C149.687 0.440468 156.844 12.1826 164.399 24.5761C172.041 37.1131 180.089 50.3167 191.209 52.7061H116.205H107.184Z" fill="url(#paint0_linear_234_792)"/>
<path d="M0.872925 52.7061V54.7061H-1.12708V52.7061H0.872925ZM116.205 0.44043L116.205 -1.55957L116.205 -1.55957L116.205 0.44043ZM140.352 0.440468L140.352 2.44047L140.352 2.44047L140.352 0.440468ZM164.399 24.5761L166.107 23.5351L164.399 24.5761ZM191.209 52.7061L191.629 50.7507L191.209 54.7061V52.7061ZM0.872925 50.7061H107.184V54.7061H0.872925V50.7061ZM2.87292 3.44043V52.7061H-1.12708V3.44043H2.87292ZM3.87293 2.44043C3.32064 2.44043 2.87292 2.88815 2.87292 3.44043H-1.12708C-1.12708 0.679006 1.1115 -1.55957 3.87293 -1.55957V2.44043ZM116.205 2.44043H3.87293V-1.55957H116.205V2.44043ZM116.205 -1.55957L140.352 -1.55953L140.352 2.44047L116.205 2.44043L116.205 -1.55957ZM140.352 -1.55953C145.912 -1.55953 150.543 1.93903 154.552 6.54822C158.587 11.1868 162.356 17.3821 166.107 23.5351L162.691 25.6171C158.887 19.3766 155.301 13.5042 151.534 9.17325C147.742 4.81298 144.126 2.44047 140.352 2.44047V-1.55953ZM166.107 23.5351C169.947 29.8356 173.789 36.1301 178.029 41.1571C182.279 46.1962 186.712 49.694 191.629 50.7507L190.789 54.6614C184.587 53.3287 179.436 49.03 174.971 43.7358C170.496 38.4295 166.493 31.8537 162.691 25.6171L166.107 23.5351ZM191.209 54.7061H116.205V50.7061H191.209V54.7061ZM116.205 54.7061H107.184V50.7061H116.205V54.7061Z" fill="url(#paint1_linear_234_792)" mask="url(#path-1-inside-1_234_792)"/>
<defs>
<linearGradient id="paint0_linear_234_792" x1="0.872925" y1="26.5732" x2="253.591" y2="26.5732" gradientUnits="userSpaceOnUse">
<stop stop-color="#322B1C"/>
<stop offset="0.472245" stop-color="#594D32"/>
<stop offset="0.837245" stop-color="#3B3123"/>
<stop offset="1" stop-color="#272319"/>
</linearGradient>
<linearGradient id="paint1_linear_234_792" x1="80.2679" y1="-7.50577" x2="84.8436" y2="110.156" gradientUnits="userSpaceOnUse">
<stop stop-color="#63512E"/>
<stop offset="0.0884568" stop-color="#423625"/>
<stop offset="0.41132" stop-color="#D6BD84"/>
<stop offset="0.837918" stop-color="#0E0B06"/>
<stop offset="0.926574" stop-color="#413723"/>
<stop offset="1" stop-color="#1D1910"/>
</linearGradient>
</defs>
</svg>
