<svg width="194" height="53" viewBox="0 0 194 53" fill="none" xmlns="http://www.w3.org/2000/svg">
<mask id="mask0_253_3321" style="mask-type:luminance" maskUnits="userSpaceOnUse" x="0" y="0" width="185" height="53">
<path d="M184.238 0H0V53H184.238V0Z" fill="white"/>
</mask>
<g mask="url(#mask0_253_3321)">
<mask id="mask1_253_3321" style="mask-type:luminance" maskUnits="userSpaceOnUse" x="0" y="0" width="186" height="53">
<path d="M185.906 0H0V53H185.906V0Z" fill="white"/>
</mask>
<g mask="url(#mask1_253_3321)">
<mask id="mask2_253_3321" style="mask-type:luminance" maskUnits="userSpaceOnUse" x="0" y="0" width="186" height="53">
<path d="M185.906 0H0V53H185.906V0Z" fill="white"/>
</mask>
<g mask="url(#mask2_253_3321)">
<path fill-rule="evenodd" clip-rule="evenodd" d="M103.782 49.0942H0.845337V3.44043C0.845337 1.78358 2.14585 0.44043 3.75012 0.44043H112.516L135.897 0.440468C144.935 0.440468 151.865 12.1826 159.181 24.5761C166.581 37.1131 174.373 46.7048 185.14 49.0942H112.516H103.782Z" fill="url(#paint0_linear_253_3321)"/>
<mask id="mask3_253_3321" style="mask-type:luminance" maskUnits="userSpaceOnUse" x="0" y="0" width="186" height="50">
<path fill-rule="evenodd" clip-rule="evenodd" d="M103.782 49.2278H0.845337V3.2666C0.845337 1.60975 2.14585 0.266602 3.75012 0.266602H112.516L135.897 0.26664C144.935 0.26664 151.865 8.70435 159.181 21.0979C166.581 33.6349 174.373 46.8384 185.14 49.2278H112.516H103.782Z" fill="white"/>
</mask>
<g mask="url(#mask3_253_3321)">
<path d="M0.845334 49.2279V51.2279H-1.09119V49.2279H0.845334ZM185.14 49.2279L185.547 47.2725L185.14 51.2279V49.2279ZM0.845334 47.2279H103.782V51.2279H0.845334V47.2279ZM2.78186 3.27529V49.2279H-1.09119V4.39746L2.78186 3.27529ZM3.75012 2.27529C3.21537 2.27529 2.78186 2.72301 2.78186 3.27529L-1.09119 4.39746C-1.09119 1.63604 1.07634 -0.602539 3.75012 -0.602539V2.27529ZM112.516 2.27529H3.75012V-0.602539H112.516V2.27529ZM112.516 -0.602539L135.897 -0.602499V2.27533L112.516 2.27529V-0.602539ZM135.897 -0.602499C141.281 -0.602499 146.949 1.64037 150.831 6.24956C154.737 10.8881 157.043 13.9906 160.674 20.1436L157.368 22.2256C153.684 15.9851 151.106 12.8133 147.459 8.48234C143.787 4.12207 139.552 2.27533 135.897 2.27533V-0.602499ZM160.674 20.1436C164.393 26.4441 168.113 32.7386 172.219 37.7656C176.334 42.8047 180.786 46.2158 185.547 47.2725L184.734 51.1832C178.728 49.8505 173.643 45.5337 169.32 40.2395C164.988 34.9332 161.049 28.4622 157.368 22.2256L160.674 20.1436ZM185.14 51.2279H112.516V47.2279H185.14V51.2279ZM112.516 51.2279H103.782V47.2279H112.516V51.2279Z" fill="url(#paint1_linear_253_3321)"/>
</g>
<path d="M2.77204 37.9312L166.714 38.2586C166.714 38.2586 170.262 42.1612 175.025 46.2494C177.603 48.0332 177.726 48.405 180.432 49.6021C183.457 50.9224 186.422 52.0894 186.422 52.0894L2.75916 52.9737L2.77204 37.9312Z" fill="url(#paint2_linear_253_3321)"/>
<path d="M184.444 48.4515L179.374 48.4331L186.47 51.4911L186.896 51.5094L191.022 49.1493L184.444 48.4515Z" fill="#98855D"/>
<path d="M2.76489 48.8765H0.84729V52.9824H2.76489V48.8765Z" fill="#B6A170"/>
</g>
<path d="M176.339 47.1709C180.628 49.4899 184.358 49.7684 185.909 49.775L186.378 49.7684C186.256 49.7725 186.1 49.7758 185.909 49.775L177.775 49.8893L176.339 47.1709Z" fill="#423726"/>
</g>
</g>
<rect x="180.798" y="49.7195" width="3.43964" height="1.74194" fill="#413726"/>
<path d="M184.238 49.9641C179.463 49.5454 177.315 47.9702 176.278 47.1177L176.785 44.979C178.924 46.9193 182.425 47.8861 184.238 47.9731V49.9641Z" fill="#A39064"/>
<defs>
<linearGradient id="paint0_linear_253_3321" x1="0.845337" y1="26.5732" x2="245.542" y2="26.5732" gradientUnits="userSpaceOnUse">
<stop stop-color="#322B1C"/>
<stop offset="0.472245" stop-color="#594D32"/>
<stop offset="0.837245" stop-color="#3B3123"/>
<stop offset="1" stop-color="#272319"/>
</linearGradient>
<linearGradient id="paint1_linear_253_3321" x1="77.7201" y1="-10.9838" x2="82.4454" y2="106.666" gradientUnits="userSpaceOnUse">
<stop stop-color="#63512E"/>
<stop offset="0.0884568" stop-color="#423625"/>
<stop offset="0.41132" stop-color="#D6BD84"/>
<stop offset="0.837918" stop-color="#0E0B06"/>
<stop offset="0.926574" stop-color="#413723"/>
<stop offset="1" stop-color="#1D1910"/>
</linearGradient>
<linearGradient id="paint2_linear_253_3321" x1="2.97664" y1="44.2178" x2="235.718" y2="44.2178" gradientUnits="userSpaceOnUse">
<stop stop-color="#322B1C"/>
<stop offset="0.472245" stop-color="#594D32"/>
<stop offset="0.837245" stop-color="#3B3123"/>
<stop offset="1" stop-color="#272319"/>
</linearGradient>
</defs>
</svg>
