<svg width="16" height="16" viewBox="0 0 16 16" fill="none" xmlns="http://www.w3.org/2000/svg">
<g opacity="0.8">
<g filter="url(#filter0_i_2120_53899)">
<path d="M15.1882 7.40039C15.5215 7.59284 15.5215 8.07396 15.1882 8.26641L5.10938 14.0853C4.77604 14.2778 4.35938 14.0372 4.35938 13.6523V2.01442C4.35938 1.62952 4.77604 1.38896 5.10938 1.58141L15.1882 7.40039Z" fill="black"/>
</g>
<g filter="url(#filter1_i_2120_53899)">
<path d="M14.6187 7.48605C14.8854 7.64001 14.8854 8.02491 14.6187 8.17887L5.31875 13.5482C5.05208 13.7021 4.71875 13.5097 4.71875 13.2018V2.4631C4.71875 2.15518 5.05208 1.96273 5.31875 2.11669L14.6187 7.48605Z" fill="url(#paint0_linear_2120_53899)"/>
</g>
</g>
<defs>
<filter id="filter0_i_2120_53899" x="4.35938" y="-0.486328" width="11.0781" height="14.6387" filterUnits="userSpaceOnUse" color-interpolation-filters="sRGB">
<feFlood flood-opacity="0" result="BackgroundImageFix"/>
<feBlend mode="normal" in="SourceGraphic" in2="BackgroundImageFix" result="shape"/>
<feColorMatrix in="SourceAlpha" type="matrix" values="0 0 0 0 0 0 0 0 0 0 0 0 0 0 0 0 0 0 127 0" result="hardAlpha"/>
<feOffset dy="-2"/>
<feGaussianBlur stdDeviation="1.75"/>
<feComposite in2="hardAlpha" operator="arithmetic" k2="-1" k3="1"/>
<feColorMatrix type="matrix" values="0 0 0 0 0 0 0 0 0 0 0 0 0 0 0 0 0 0 0.25 0"/>
<feBlend mode="normal" in2="shape" result="effect1_innerShadow_2120_53899"/>
</filter>
<filter id="filter1_i_2120_53899" x="4.71875" y="2.0625" width="10.1016" height="11.5391" filterUnits="userSpaceOnUse" color-interpolation-filters="sRGB">
<feFlood flood-opacity="0" result="BackgroundImageFix"/>
<feBlend mode="normal" in="SourceGraphic" in2="BackgroundImageFix" result="shape"/>
<feColorMatrix in="SourceAlpha" type="matrix" values="0 0 0 0 0 0 0 0 0 0 0 0 0 0 0 0 0 0 127 0" result="hardAlpha"/>
<feOffset/>
<feGaussianBlur stdDeviation="1.75"/>
<feComposite in2="hardAlpha" operator="arithmetic" k2="-1" k3="1"/>
<feColorMatrix type="matrix" values="0 0 0 0 0 0 0 0 0 0 0 0 0 0 0 0 0 0 0.25 0"/>
<feBlend mode="normal" in2="shape" result="effect1_innerShadow_2120_53899"/>
</filter>
<linearGradient id="paint0_linear_2120_53899" x1="4.69417" y1="2.35827" x2="10.3803" y2="12.0797" gradientUnits="userSpaceOnUse">
<stop stop-color="#F7EEE6"/>
<stop offset="0.51943" stop-color="#D4D1CE"/>
<stop offset="1" stop-color="#808080"/>
</linearGradient>
</defs>
</svg>
