<svg width="16" height="16" viewBox="0 0 16 16" fill="none" xmlns="http://www.w3.org/2000/svg">
<g filter="url(#filter0_i_2120_53904)">
<path d="M15.1882 7.39648C15.5215 7.58893 15.5215 8.07005 15.1882 8.2625L5.10938 14.0815C4.77604 14.2739 4.35938 14.0334 4.35938 13.6485V2.01051C4.35938 1.62561 4.77604 1.38505 5.10938 1.5775L15.1882 7.39648Z" fill="black"/>
</g>
<g filter="url(#filter1_i_2120_53904)">
<path d="M14.6187 7.48214C14.8854 7.6361 14.8854 8.021 14.6187 8.17496L5.31875 13.5443C5.05208 13.6983 4.71875 13.5058 4.71875 13.1979V2.45919C4.71875 2.15127 5.05208 1.95882 5.31875 2.11278L14.6187 7.48214Z" fill="url(#paint0_linear_2120_53904)"/>
</g>
<defs>
<filter id="filter0_i_2120_53904" x="4.35938" y="-0.490234" width="11.0781" height="14.6387" filterUnits="userSpaceOnUse" color-interpolation-filters="sRGB">
<feFlood flood-opacity="0" result="BackgroundImageFix"/>
<feBlend mode="normal" in="SourceGraphic" in2="BackgroundImageFix" result="shape"/>
<feColorMatrix in="SourceAlpha" type="matrix" values="0 0 0 0 0 0 0 0 0 0 0 0 0 0 0 0 0 0 127 0" result="hardAlpha"/>
<feOffset dy="-2"/>
<feGaussianBlur stdDeviation="1.75"/>
<feComposite in2="hardAlpha" operator="arithmetic" k2="-1" k3="1"/>
<feColorMatrix type="matrix" values="0 0 0 0 0 0 0 0 0 0 0 0 0 0 0 0 0 0 0.25 0"/>
<feBlend mode="normal" in2="shape" result="effect1_innerShadow_2120_53904"/>
</filter>
<filter id="filter1_i_2120_53904" x="4.71875" y="0.0585938" width="10.1016" height="13.5391" filterUnits="userSpaceOnUse" color-interpolation-filters="sRGB">
<feFlood flood-opacity="0" result="BackgroundImageFix"/>
<feBlend mode="normal" in="SourceGraphic" in2="BackgroundImageFix" result="shape"/>
<feColorMatrix in="SourceAlpha" type="matrix" values="0 0 0 0 0 0 0 0 0 0 0 0 0 0 0 0 0 0 127 0" result="hardAlpha"/>
<feOffset dy="-2"/>
<feGaussianBlur stdDeviation="1.75"/>
<feComposite in2="hardAlpha" operator="arithmetic" k2="-1" k3="1"/>
<feColorMatrix type="matrix" values="0 0 0 0 0 0 0 0 0 0 0 0 0 0 0 0 0 0 0.25 0"/>
<feBlend mode="normal" in2="shape" result="effect1_innerShadow_2120_53904"/>
</filter>
<linearGradient id="paint0_linear_2120_53904" x1="4.5528" y1="1.66652" x2="10.8395" y2="11.7423" gradientUnits="userSpaceOnUse">
<stop stop-color="#D8A800"/>
<stop offset="0.556189" stop-color="#B88F00"/>
<stop offset="1" stop-color="#7B5F00"/>
</linearGradient>
</defs>
</svg>
