<svg width="16" height="16" viewBox="0 0 16 16" fill="none" xmlns="http://www.w3.org/2000/svg">
<g filter="url(#filter0_i_277_895)">
<path d="M14.6884 7.28617C15.0217 7.47862 15.0217 7.95974 14.6884 8.15219L4.60959 13.9712C4.27625 14.1636 3.85959 13.9231 3.85959 13.5382L3.85959 1.9002C3.85959 1.5153 4.27625 1.27474 4.60959 1.46719L14.6884 7.28617Z" fill="#C7B061"/>
</g>
<g filter="url(#filter1_i_277_895)">
<path d="M14.1191 7.37283C14.3858 7.52679 14.3858 7.91169 14.1191 8.06565L4.81912 13.435C4.55245 13.589 4.21912 13.3965 4.21912 13.0886L4.21912 2.34988C4.21912 2.04196 4.55245 1.84951 4.81912 2.00347L14.1191 7.37283Z" fill="url(#paint0_linear_277_895)"/>
</g>
<defs>
<filter id="filter0_i_277_895" x="3.85962" y="-0.600586" width="11.0787" height="14.6394" filterUnits="userSpaceOnUse" color-interpolation-filters="sRGB">
<feFlood flood-opacity="0" result="BackgroundImageFix"/>
<feBlend mode="normal" in="SourceGraphic" in2="BackgroundImageFix" result="shape"/>
<feColorMatrix in="SourceAlpha" type="matrix" values="0 0 0 0 0 0 0 0 0 0 0 0 0 0 0 0 0 0 127 0" result="hardAlpha"/>
<feOffset dy="-2"/>
<feGaussianBlur stdDeviation="1.75"/>
<feComposite in2="hardAlpha" operator="arithmetic" k2="-1" k3="1"/>
<feColorMatrix type="matrix" values="0 0 0 0 0 0 0 0 0 0 0 0 0 0 0 0 0 0 0.25 0"/>
<feBlend mode="normal" in2="shape" result="effect1_innerShadow_277_895"/>
</filter>
<filter id="filter1_i_277_895" x="4.21912" y="-0.0507812" width="10.1" height="13.54" filterUnits="userSpaceOnUse" color-interpolation-filters="sRGB">
<feFlood flood-opacity="0" result="BackgroundImageFix"/>
<feBlend mode="normal" in="SourceGraphic" in2="BackgroundImageFix" result="shape"/>
<feColorMatrix in="SourceAlpha" type="matrix" values="0 0 0 0 0 0 0 0 0 0 0 0 0 0 0 0 0 0 127 0" result="hardAlpha"/>
<feOffset dy="-2"/>
<feGaussianBlur stdDeviation="1.75"/>
<feComposite in2="hardAlpha" operator="arithmetic" k2="-1" k3="1"/>
<feColorMatrix type="matrix" values="0 0 0 0 0 0 0 0 0 0 0 0 0 0 0 0 0 0 0.25 0"/>
<feBlend mode="normal" in2="shape" result="effect1_innerShadow_277_895"/>
</filter>
<linearGradient id="paint0_linear_277_895" x1="4.05317" y1="1.55721" x2="10.3399" y2="11.633" gradientUnits="userSpaceOnUse">
<stop stop-color="#D8A800"/>
<stop offset="0.556189" stop-color="#B88F00"/>
<stop offset="1" stop-color="#7B5F00"/>
</linearGradient>
</defs>
</svg>
